<?xml version="1.0" encoding="UTF-8" standalone="no"?>
<svg 
   width="24"
   height="24"
   viewBox="0 0 24 24"
   fill="none"
   xmlns="http://www.w3.org/2000/svg">
  <path 
     d="M12 2C6.48 2 2 6.48 2 12s4.48 10 10 10 10-4.48 10-10S17.52 2 12 2zm0 18c-4.41 0-8-3.59-8-8s3.59-8 8-8 8 3.59 8 8-3.59 8-8 8z"
     fill="#4CA6FF" />
  <path 
     d="M11 7h2v2h-2zm0 4h2v6h-2z"
     fill="#4CA6FF" />
  <path 
     d="M8.5 8.5c0 0 1.5-1.5 3.5-1.5s3.5 1.5 3.5 1.5"
     stroke="#4CA6FF" 
     stroke-width="1.5"
     stroke-linecap="round" />
  <circle 
     cx="9"
     cy="7.5"
     r="1.25"
     fill="#4CA6FF" />
  <circle 
     cx="15"
     cy="7.5"
     r="1.25"
     fill="#4CA6FF" />
</svg> 